<?xml version="1.0" encoding="UTF-8" standalone="no"?>
<!-- Created with Inkscape (http://www.inkscape.org/) -->

<svg
   width="320.44376mm"
   height="244.25804mm"
   viewBox="0 0 320.44376 244.25804"
   version="1.1"
   id="svg5"
   xmlns="http://www.w3.org/2000/svg"
   xmlns:svg="http://www.w3.org/2000/svg"
   xmlns:rdf="http://www.w3.org/1999/02/22-rdf-syntax-ns#"
   xmlns:cc="http://creativecommons.org/ns#"
   xmlns:dc="http://purl.org/dc/elements/1.1/">
  <title
     id="title634">How the reduce program works</title>
  <defs
     id="defs2" />
  <g
     id="layer1"
     transform="translate(481.1329,174.98495)">
    <g
       transform="matrix(0.26458333,0,0,0.26458333,-513.45616,-185.61238)"
       id="g390">
      <rect
         x="123"
         y="41"
         width="270"
         height="275"
         stroke="#2f528f"
         stroke-width="1.66667"
         stroke-miterlimit="8"
         fill="none"
         id="rect132" />
      <path
         d="M 0,0 6.88714,6.7752"
         stroke="#4472c4"
         stroke-width="3.33333"
         stroke-miterlimit="8"
         fill="none"
         fill-rule="evenodd"
         transform="matrix(-1,0,0,1,181.387,129.5)"
         id="path134" />
      <path
         d="M 0,0 6.88714,6.7752"
         stroke="#4472c4"
         stroke-width="3.33333"
         stroke-miterlimit="8"
         fill="none"
         fill-rule="evenodd"
         transform="matrix(0,1,1,0,174.5,129.5)"
         id="path136" />
      <path
         d="M 0,0 6.88714,6.7752"
         stroke="#4472c4"
         stroke-width="3.33333"
         stroke-miterlimit="8"
         fill="none"
         fill-rule="evenodd"
         transform="matrix(-1,0,0,1,175.387,154.5)"
         id="path138" />
      <path
         d="M 0,0 6.88714,6.7752"
         stroke="#4472c4"
         stroke-width="3.33333"
         stroke-miterlimit="8"
         fill="none"
         fill-rule="evenodd"
         transform="matrix(0,1,1,0,168.5,154.5)"
         id="path140" />
      <path
         d="M 0,0 6.88714,6.7752"
         stroke="#4472c4"
         stroke-width="3.33333"
         stroke-miterlimit="8"
         fill="none"
         fill-rule="evenodd"
         transform="matrix(-1,0,0,1,330.387,136.5)"
         id="path142" />
      <path
         d="M 0,0 6.88714,6.7752"
         stroke="#4472c4"
         stroke-width="3.33333"
         stroke-miterlimit="8"
         fill="none"
         fill-rule="evenodd"
         transform="matrix(0,1,1,0,323.5,136.5)"
         id="path144" />
      <path
         d="M 0,0 6.88714,6.7752"
         stroke="#4472c4"
         stroke-width="3.33333"
         stroke-miterlimit="8"
         fill="none"
         fill-rule="evenodd"
         transform="matrix(-1,0,0,1,360.387,170.5)"
         id="path146" />
      <path
         d="M 0,0 6.88714,6.7752"
         stroke="#4472c4"
         stroke-width="3.33333"
         stroke-miterlimit="8"
         fill="none"
         fill-rule="evenodd"
         transform="matrix(0,1,1,0,353.5,170.5)"
         id="path148" />
      <path
         d="M 0,0 6.88714,6.7752"
         stroke="#4472c4"
         stroke-width="3.33333"
         stroke-miterlimit="8"
         fill="none"
         fill-rule="evenodd"
         transform="matrix(-1,0,0,1,216.387,207.5)"
         id="path150" />
      <path
         d="M 0,0 6.88714,6.7752"
         stroke="#4472c4"
         stroke-width="3.33333"
         stroke-miterlimit="8"
         fill="none"
         fill-rule="evenodd"
         transform="matrix(0,1,1,0,209.5,207.5)"
         id="path152" />
      <path
         d="M 0,0 6.88714,6.7752"
         stroke="#4472c4"
         stroke-width="3.33333"
         stroke-miterlimit="8"
         fill="none"
         fill-rule="evenodd"
         transform="matrix(-1,0,0,1,333.387,192.5)"
         id="path154" />
      <path
         d="M 0,0 6.88714,6.7752"
         stroke="#4472c4"
         stroke-width="3.33333"
         stroke-miterlimit="8"
         fill="none"
         fill-rule="evenodd"
         transform="matrix(0,1,1,0,326.5,192.5)"
         id="path156" />
      <path
         d="M 0,0 6.88714,6.7752"
         stroke="#4472c4"
         stroke-width="3.33333"
         stroke-miterlimit="8"
         fill="none"
         fill-rule="evenodd"
         transform="matrix(-1,0,0,1,339.387,256.5)"
         id="path158" />
      <path
         d="M 0,0 6.88714,6.7752"
         stroke="#4472c4"
         stroke-width="3.33333"
         stroke-miterlimit="8"
         fill="none"
         fill-rule="evenodd"
         transform="matrix(0,1,1,0,332.5,256.5)"
         id="path160" />
      <path
         d="M 0,0 6.88714,6.7752"
         stroke="#4472c4"
         stroke-width="3.33333"
         stroke-miterlimit="8"
         fill="none"
         fill-rule="evenodd"
         transform="matrix(-1,0,0,1,152.387,283.5)"
         id="path162" />
      <path
         d="M 0,0 6.88714,6.7752"
         stroke="#4472c4"
         stroke-width="3.33333"
         stroke-miterlimit="8"
         fill="none"
         fill-rule="evenodd"
         transform="matrix(0,1,1,0,145.5,283.5)"
         id="path164" />
      <path
         d="M 0,0 6.88714,6.7752"
         stroke="#4472c4"
         stroke-width="3.33333"
         stroke-miterlimit="8"
         fill="none"
         fill-rule="evenodd"
         transform="matrix(-1,0,0,1,274.387,286.5)"
         id="path166" />
      <path
         d="M 0,0 6.88714,6.7752"
         stroke="#4472c4"
         stroke-width="3.33333"
         stroke-miterlimit="8"
         fill="none"
         fill-rule="evenodd"
         transform="matrix(0,1,1,0,267.5,286.5)"
         id="path168" />
      <path
         d="M 0,0 6.88714,6.7752"
         stroke="#4472c4"
         stroke-width="3.33333"
         stroke-miterlimit="8"
         fill="none"
         fill-rule="evenodd"
         transform="matrix(-1,0,0,1,266.387,57.5)"
         id="path170" />
      <path
         d="M 0,0 6.88714,6.7752"
         stroke="#4472c4"
         stroke-width="3.33333"
         stroke-miterlimit="8"
         fill="none"
         fill-rule="evenodd"
         transform="matrix(0,1,1,0,259.5,57.4999)"
         id="path172" />
      <path
         d="M 0,0 6.88714,6.7752"
         stroke="#4472c4"
         stroke-width="3.33333"
         stroke-miterlimit="8"
         fill="none"
         fill-rule="evenodd"
         transform="matrix(-1,0,0,1,188.387,136.5)"
         id="path174" />
      <path
         d="M 0,0 6.88714,6.7752"
         stroke="#4472c4"
         stroke-width="3.33333"
         stroke-miterlimit="8"
         fill="none"
         fill-rule="evenodd"
         transform="matrix(0,1,1,0,181.5,136.5)"
         id="path176" />
      <rect
         x="579"
         y="41"
         width="268"
         height="273"
         stroke="#2f528f"
         stroke-width="1.66667"
         stroke-miterlimit="8"
         fill="none"
         id="rect178" />
      <path
         d="M 0,0 6.83911,6.72795"
         stroke="#4472c4"
         stroke-width="3.33333"
         stroke-miterlimit="8"
         fill="none"
         fill-rule="evenodd"
         transform="matrix(-1,0,0,1,637.339,128.5)"
         id="path180" />
      <path
         d="M 0,0 6.83911,6.72795"
         stroke="#4472c4"
         stroke-width="3.33333"
         stroke-miterlimit="8"
         fill="none"
         fill-rule="evenodd"
         transform="matrix(0,1,1,0,630.5,128.5)"
         id="path182" />
      <path
         d="M 0,0 6.83911,6.72795"
         stroke="#4472c4"
         stroke-width="3.33333"
         stroke-miterlimit="8"
         fill="none"
         fill-rule="evenodd"
         transform="matrix(-1,0,0,1,630.339,153.5)"
         id="path184" />
      <path
         d="M 0,0 6.83911,6.72795"
         stroke="#4472c4"
         stroke-width="3.33333"
         stroke-miterlimit="8"
         fill="none"
         fill-rule="evenodd"
         transform="matrix(0,1,1,0,623.5,153.5)"
         id="path186" />
      <path
         d="M 0,0 6.83911,6.72795"
         stroke="#4472c4"
         stroke-width="3.33333"
         stroke-miterlimit="8"
         fill="none"
         fill-rule="evenodd"
         transform="matrix(-1,0,0,1,784.339,136.5)"
         id="path188" />
      <path
         d="M 0,0 6.83911,6.72795"
         stroke="#4472c4"
         stroke-width="3.33333"
         stroke-miterlimit="8"
         fill="none"
         fill-rule="evenodd"
         transform="matrix(0,1,1,0,777.5,136.5)"
         id="path190" />
      <path
         d="M 0,0 6.83911,6.72795"
         stroke="#4472c4"
         stroke-width="3.33333"
         stroke-miterlimit="8"
         fill="none"
         fill-rule="evenodd"
         transform="matrix(-1,0,0,1,815.339,169.5)"
         id="path192" />
      <path
         d="M 0,0 6.83911,6.72795"
         stroke="#4472c4"
         stroke-width="3.33333"
         stroke-miterlimit="8"
         fill="none"
         fill-rule="evenodd"
         transform="matrix(0,1,1,0,808.5,169.5)"
         id="path194" />
      <path
         d="M 0,0 6.83911,6.72795"
         stroke="#4472c4"
         stroke-width="3.33333"
         stroke-miterlimit="8"
         fill="none"
         fill-rule="evenodd"
         transform="matrix(-1,0,0,1,671.339,206.5)"
         id="path196" />
      <path
         d="M 0,0 6.83911,6.72795"
         stroke="#4472c4"
         stroke-width="3.33333"
         stroke-miterlimit="8"
         fill="none"
         fill-rule="evenodd"
         transform="matrix(0,1,1,0,664.5,206.5)"
         id="path198" />
      <path
         d="M 0,0 6.83911,6.72795"
         stroke="#4472c4"
         stroke-width="3.33333"
         stroke-miterlimit="8"
         fill="none"
         fill-rule="evenodd"
         transform="matrix(-1,0,0,1,788.339,191.5)"
         id="path200" />
      <path
         d="M 0,0 6.83911,6.72795"
         stroke="#4472c4"
         stroke-width="3.33333"
         stroke-miterlimit="8"
         fill="none"
         fill-rule="evenodd"
         transform="matrix(0,1,1,0,781.5,191.5)"
         id="path202" />
      <path
         d="M 0,0 6.83911,6.72795"
         stroke="#4472c4"
         stroke-width="3.33333"
         stroke-miterlimit="8"
         fill="none"
         fill-rule="evenodd"
         transform="matrix(-1,0,0,1,794.339,254.5)"
         id="path204" />
      <path
         d="M 0,0 6.83911,6.72795"
         stroke="#4472c4"
         stroke-width="3.33333"
         stroke-miterlimit="8"
         fill="none"
         fill-rule="evenodd"
         transform="matrix(0,1,1,0,787.5,254.5)"
         id="path206" />
      <path
         d="M 0,0 6.83911,6.72795"
         stroke="#4472c4"
         stroke-width="3.33333"
         stroke-miterlimit="8"
         fill="none"
         fill-rule="evenodd"
         transform="matrix(-1,0,0,1,608.339,281.5)"
         id="path208" />
      <path
         d="M 0,0 6.83911,6.72795"
         stroke="#4472c4"
         stroke-width="3.33333"
         stroke-miterlimit="8"
         fill="none"
         fill-rule="evenodd"
         transform="matrix(0,1,1,0,601.5,281.5)"
         id="path210" />
      <path
         d="M 0,0 6.83911,6.72795"
         stroke="#4472c4"
         stroke-width="3.33333"
         stroke-miterlimit="8"
         fill="none"
         fill-rule="evenodd"
         transform="matrix(-1,0,0,1,729.339,285.5)"
         id="path212" />
      <path
         d="M 0,0 6.83911,6.72795"
         stroke="#4472c4"
         stroke-width="3.33333"
         stroke-miterlimit="8"
         fill="none"
         fill-rule="evenodd"
         transform="matrix(0,1,1,0,722.5,284.5)"
         id="path214" />
      <path
         d="M 0,0 6.83911,6.72795"
         stroke="#4472c4"
         stroke-width="3.33333"
         stroke-miterlimit="8"
         fill="none"
         fill-rule="evenodd"
         transform="matrix(-1,0,0,1,720.339,57.5)"
         id="path216" />
      <path
         d="M 0,0 6.83911,6.72795"
         stroke="#4472c4"
         stroke-width="3.33333"
         stroke-miterlimit="8"
         fill="none"
         fill-rule="evenodd"
         transform="matrix(0,1,1,0,713.5,57.4999)"
         id="path218" />
      <rect
         x="1033"
         y="41"
         width="268"
         height="273"
         stroke="#2f528f"
         stroke-width="1.66667"
         stroke-miterlimit="8"
         fill="none"
         id="rect220" />
      <path
         d="M 0,0 6.83911,6.72795"
         stroke="#4472c4"
         stroke-width="3.33333"
         stroke-miterlimit="8"
         fill="none"
         fill-rule="evenodd"
         transform="matrix(-1,0,0,1,1084.34,153.5)"
         id="path222" />
      <path
         d="M 0,0 6.83911,6.72795"
         stroke="#4472c4"
         stroke-width="3.33333"
         stroke-miterlimit="8"
         fill="none"
         fill-rule="evenodd"
         transform="matrix(0,1,1,0,1077.5,153.5)"
         id="path224" />
      <path
         d="M 0,0 6.83911,6.72795"
         stroke="#4472c4"
         stroke-width="3.33333"
         stroke-miterlimit="8"
         fill="none"
         fill-rule="evenodd"
         transform="matrix(-1,0,0,1,1238.34,136.5)"
         id="path226" />
      <path
         d="M 0,0 6.83911,6.72795"
         stroke="#4472c4"
         stroke-width="3.33333"
         stroke-miterlimit="8"
         fill="none"
         fill-rule="evenodd"
         transform="matrix(0,1,1,0,1231.5,136.5)"
         id="path228" />
      <path
         d="M 0,0 6.83911,6.72795"
         stroke="#4472c4"
         stroke-width="3.33333"
         stroke-miterlimit="8"
         fill="none"
         fill-rule="evenodd"
         transform="matrix(-1,0,0,1,1268.34,169.5)"
         id="path230" />
      <path
         d="M 0,0 6.83911,6.72795"
         stroke="#4472c4"
         stroke-width="3.33333"
         stroke-miterlimit="8"
         fill="none"
         fill-rule="evenodd"
         transform="matrix(0,1,1,0,1261.5,169.5)"
         id="path232" />
      <path
         d="M 0,0 6.83911,6.72795"
         stroke="#4472c4"
         stroke-width="3.33333"
         stroke-miterlimit="8"
         fill="none"
         fill-rule="evenodd"
         transform="matrix(-1,0,0,1,1125.34,206.5)"
         id="path234" />
      <path
         d="M 0,0 6.83911,6.72795"
         stroke="#4472c4"
         stroke-width="3.33333"
         stroke-miterlimit="8"
         fill="none"
         fill-rule="evenodd"
         transform="matrix(0,1,1,0,1118.5,206.5)"
         id="path236" />
      <path
         d="M 0,0 6.83911,6.72795"
         stroke="#4472c4"
         stroke-width="3.33333"
         stroke-miterlimit="8"
         fill="none"
         fill-rule="evenodd"
         transform="matrix(-1,0,0,1,1241.34,191.5)"
         id="path238" />
      <path
         d="M 0,0 6.83911,6.72795"
         stroke="#4472c4"
         stroke-width="3.33333"
         stroke-miterlimit="8"
         fill="none"
         fill-rule="evenodd"
         transform="matrix(0,1,1,0,1234.5,191.5)"
         id="path240" />
      <path
         d="M 0,0 6.83911,6.72795"
         stroke="#4472c4"
         stroke-width="3.33333"
         stroke-miterlimit="8"
         fill="none"
         fill-rule="evenodd"
         transform="matrix(-1,0,0,1,1247.34,254.5)"
         id="path242" />
      <path
         d="M 0,0 6.83911,6.72795"
         stroke="#4472c4"
         stroke-width="3.33333"
         stroke-miterlimit="8"
         fill="none"
         fill-rule="evenodd"
         transform="matrix(0,1,1,0,1240.5,254.5)"
         id="path244" />
      <path
         d="M 0,0 6.83911,6.72795"
         stroke="#4472c4"
         stroke-width="3.33333"
         stroke-miterlimit="8"
         fill="none"
         fill-rule="evenodd"
         transform="matrix(-1,0,0,1,1062.34,281.5)"
         id="path246" />
      <path
         d="M 0,0 6.83911,6.72795"
         stroke="#4472c4"
         stroke-width="3.33333"
         stroke-miterlimit="8"
         fill="none"
         fill-rule="evenodd"
         transform="matrix(0,1,1,0,1055.5,281.5)"
         id="path248" />
      <path
         d="M 0,0 6.83911,6.72795"
         stroke="#4472c4"
         stroke-width="3.33333"
         stroke-miterlimit="8"
         fill="none"
         fill-rule="evenodd"
         transform="matrix(-1,0,0,1,1183.34,285.5)"
         id="path250" />
      <path
         d="M 0,0 6.83911,6.72795"
         stroke="#4472c4"
         stroke-width="3.33333"
         stroke-miterlimit="8"
         fill="none"
         fill-rule="evenodd"
         transform="matrix(0,1,1,0,1176.5,284.5)"
         id="path252" />
      <path
         d="M 0,0 6.83911,6.72795"
         stroke="#4472c4"
         stroke-width="3.33333"
         stroke-miterlimit="8"
         fill="none"
         fill-rule="evenodd"
         transform="matrix(-1,0,0,1,1174.34,57.5)"
         id="path254" />
      <path
         d="M 0,0 6.83911,6.72795"
         stroke="#4472c4"
         stroke-width="3.33333"
         stroke-miterlimit="8"
         fill="none"
         fill-rule="evenodd"
         transform="matrix(0,1,1,0,1167.5,57.4999)"
         id="path256" />
      <rect
         x="1033"
         y="434"
         width="268"
         height="273"
         stroke="#2f528f"
         stroke-width="1.66667"
         stroke-miterlimit="8"
         fill="none"
         id="rect258" />
      <path
         d="M 0,0 6.83911,6.72795"
         stroke="#4472c4"
         stroke-width="3.33333"
         stroke-miterlimit="8"
         fill="none"
         fill-rule="evenodd"
         transform="matrix(-1,0,0,1,1084.34,546.5)"
         id="path260" />
      <path
         d="M 0,0 6.83911,6.72795"
         stroke="#4472c4"
         stroke-width="3.33333"
         stroke-miterlimit="8"
         fill="none"
         fill-rule="evenodd"
         transform="matrix(0,1,1,0,1077.5,546.5)"
         id="path262" />
      <path
         d="M 0,0 6.83911,6.72795"
         stroke="#4472c4"
         stroke-width="3.33333"
         stroke-miterlimit="8"
         fill="none"
         fill-rule="evenodd"
         transform="matrix(-1,0,0,1,1238.34,529.5)"
         id="path264" />
      <path
         d="M 0,0 6.83911,6.72795"
         stroke="#4472c4"
         stroke-width="3.33333"
         stroke-miterlimit="8"
         fill="none"
         fill-rule="evenodd"
         transform="matrix(0,1,1,0,1231.5,529.5)"
         id="path266" />
      <path
         d="M 0,0 6.83911,6.72795"
         stroke="#4472c4"
         stroke-width="3.33333"
         stroke-miterlimit="8"
         fill="none"
         fill-rule="evenodd"
         transform="matrix(-1,0,0,1,1268.34,562.5)"
         id="path268" />
      <path
         d="M 0,0 6.83911,6.72795"
         stroke="#4472c4"
         stroke-width="3.33333"
         stroke-miterlimit="8"
         fill="none"
         fill-rule="evenodd"
         transform="matrix(0,1,1,0,1261.5,562.5)"
         id="path270" />
      <path
         d="M 0,0 6.83911,6.72795"
         stroke="#4472c4"
         stroke-width="3.33333"
         stroke-miterlimit="8"
         fill="none"
         fill-rule="evenodd"
         transform="matrix(-1,0,0,1,1125.34,599.5)"
         id="path272" />
      <path
         d="M 0,0 6.83911,6.72795"
         stroke="#4472c4"
         stroke-width="3.33333"
         stroke-miterlimit="8"
         fill="none"
         fill-rule="evenodd"
         transform="matrix(0,1,1,0,1118.5,599.5)"
         id="path274" />
      <path
         d="M 0,0 6.83911,6.72795"
         stroke="#4472c4"
         stroke-width="3.33333"
         stroke-miterlimit="8"
         fill="none"
         fill-rule="evenodd"
         transform="matrix(-1,0,0,1,1247.34,647.5)"
         id="path276" />
      <path
         d="M 0,0 6.83911,6.72795"
         stroke="#4472c4"
         stroke-width="3.33333"
         stroke-miterlimit="8"
         fill="none"
         fill-rule="evenodd"
         transform="matrix(0,1,1,0,1240.5,647.5)"
         id="path278" />
      <path
         d="M 0,0 6.83911,6.72795"
         stroke="#4472c4"
         stroke-width="3.33333"
         stroke-miterlimit="8"
         fill="none"
         fill-rule="evenodd"
         transform="matrix(-1,0,0,1,1062.34,674.5)"
         id="path280" />
      <path
         d="M 0,0 6.83911,6.72795"
         stroke="#4472c4"
         stroke-width="3.33333"
         stroke-miterlimit="8"
         fill="none"
         fill-rule="evenodd"
         transform="matrix(0,1,1,0,1055.5,674.5)"
         id="path282" />
      <path
         d="M 0,0 6.83911,6.72795"
         stroke="#4472c4"
         stroke-width="3.33333"
         stroke-miterlimit="8"
         fill="none"
         fill-rule="evenodd"
         transform="matrix(-1,0,0,1,1183.34,678.5)"
         id="path284" />
      <path
         d="M 0,0 6.83911,6.72795"
         stroke="#4472c4"
         stroke-width="3.33333"
         stroke-miterlimit="8"
         fill="none"
         fill-rule="evenodd"
         transform="matrix(0,1,1,0,1176.5,677.5)"
         id="path286" />
      <path
         d="M 0,0 6.83911,6.72795"
         stroke="#4472c4"
         stroke-width="3.33333"
         stroke-miterlimit="8"
         fill="none"
         fill-rule="evenodd"
         transform="matrix(-1,0,0,1,1174.34,450.5)"
         id="path288" />
      <path
         d="M 0,0 6.83911,6.72795"
         stroke="#4472c4"
         stroke-width="3.33333"
         stroke-miterlimit="8"
         fill="none"
         fill-rule="evenodd"
         transform="matrix(0,1,1,0,1167.5,450.5)"
         id="path290" />
      <rect
         x="579"
         y="435"
         width="268"
         height="273"
         stroke="#2f528f"
         stroke-width="1.66667"
         stroke-miterlimit="8"
         fill="none"
         id="rect292" />
      <path
         d="M 0,0 6.83911,6.72795"
         stroke="#4472c4"
         stroke-width="3.33333"
         stroke-miterlimit="8"
         fill="none"
         fill-rule="evenodd"
         transform="matrix(-1,0,0,1,630.339,547.5)"
         id="path294" />
      <path
         d="M 0,0 6.83911,6.72795"
         stroke="#4472c4"
         stroke-width="3.33333"
         stroke-miterlimit="8"
         fill="none"
         fill-rule="evenodd"
         transform="matrix(0,1,1,0,623.5,547.5)"
         id="path296" />
      <path
         d="M 0,0 6.83911,6.72795"
         stroke="#4472c4"
         stroke-width="3.33333"
         stroke-miterlimit="8"
         fill="none"
         fill-rule="evenodd"
         transform="matrix(-1,0,0,1,815.339,563.5)"
         id="path298" />
      <path
         d="M 0,0 6.83911,6.72795"
         stroke="#4472c4"
         stroke-width="3.33333"
         stroke-miterlimit="8"
         fill="none"
         fill-rule="evenodd"
         transform="matrix(0,1,1,0,808.5,563.5)"
         id="path300" />
      <path
         d="M 0,0 6.83911,6.72795"
         stroke="#4472c4"
         stroke-width="3.33333"
         stroke-miterlimit="8"
         fill="none"
         fill-rule="evenodd"
         transform="matrix(-1,0,0,1,671.339,600.5)"
         id="path302" />
      <path
         d="M 0,0 6.83911,6.72795"
         stroke="#4472c4"
         stroke-width="3.33333"
         stroke-miterlimit="8"
         fill="none"
         fill-rule="evenodd"
         transform="matrix(0,1,1,0,664.5,600.5)"
         id="path304" />
      <path
         d="M 0,0 6.83911,6.72795"
         stroke="#4472c4"
         stroke-width="3.33333"
         stroke-miterlimit="8"
         fill="none"
         fill-rule="evenodd"
         transform="matrix(-1,0,0,1,794.339,648.5)"
         id="path306" />
      <path
         d="M 0,0 6.83911,6.72795"
         stroke="#4472c4"
         stroke-width="3.33333"
         stroke-miterlimit="8"
         fill="none"
         fill-rule="evenodd"
         transform="matrix(0,1,1,0,787.5,648.5)"
         id="path308" />
      <path
         d="M 0,0 6.83911,6.72795"
         stroke="#4472c4"
         stroke-width="3.33333"
         stroke-miterlimit="8"
         fill="none"
         fill-rule="evenodd"
         transform="matrix(-1,0,0,1,608.339,675.5)"
         id="path310" />
      <path
         d="M 0,0 6.83911,6.72795"
         stroke="#4472c4"
         stroke-width="3.33333"
         stroke-miterlimit="8"
         fill="none"
         fill-rule="evenodd"
         transform="matrix(0,1,1,0,601.5,675.5)"
         id="path312" />
      <path
         d="M 0,0 6.83911,6.72795"
         stroke="#4472c4"
         stroke-width="3.33333"
         stroke-miterlimit="8"
         fill="none"
         fill-rule="evenodd"
         transform="matrix(-1,0,0,1,729.339,678.5)"
         id="path314" />
      <path
         d="M 0,0 6.83911,6.72795"
         stroke="#4472c4"
         stroke-width="3.33333"
         stroke-miterlimit="8"
         fill="none"
         fill-rule="evenodd"
         transform="matrix(0,1,1,0,722.5,678.5)"
         id="path316" />
      <path
         d="M 0,0 6.83911,6.72795"
         stroke="#4472c4"
         stroke-width="3.33333"
         stroke-miterlimit="8"
         fill="none"
         fill-rule="evenodd"
         transform="matrix(-1,0,0,1,720.339,451.5)"
         id="path318" />
      <path
         d="M 0,0 6.83911,6.72795"
         stroke="#4472c4"
         stroke-width="3.33333"
         stroke-miterlimit="8"
         fill="none"
         fill-rule="evenodd"
         transform="matrix(0,1,1,0,713.5,451.5)"
         id="path320" />
      <rect
         x="125"
         y="434"
         width="268"
         height="273"
         stroke="#2f528f"
         stroke-width="1.66667"
         stroke-miterlimit="8"
         fill="none"
         id="rect322" />
      <path
         d="M 0,0 6.83911,6.72795"
         stroke="#4472c4"
         stroke-width="3.33333"
         stroke-miterlimit="8"
         fill="none"
         fill-rule="evenodd"
         transform="matrix(-1,0,0,1,361.339,562.5)"
         id="path324" />
      <path
         d="M 0,0 6.83911,6.72795"
         stroke="#4472c4"
         stroke-width="3.33333"
         stroke-miterlimit="8"
         fill="none"
         fill-rule="evenodd"
         transform="matrix(0,1,1,0,354.5,562.5)"
         id="path326" />
      <path
         d="M 0,0 6.83911,6.72795"
         stroke="#4472c4"
         stroke-width="3.33333"
         stroke-miterlimit="8"
         fill="none"
         fill-rule="evenodd"
         transform="matrix(-1,0,0,1,217.339,599.5)"
         id="path328" />
      <path
         d="M 0,0 6.83911,6.72795"
         stroke="#4472c4"
         stroke-width="3.33333"
         stroke-miterlimit="8"
         fill="none"
         fill-rule="evenodd"
         transform="matrix(0,1,1,0,210.5,599.5)"
         id="path330" />
      <path
         d="M 0,0 6.83911,6.72795"
         stroke="#4472c4"
         stroke-width="3.33333"
         stroke-miterlimit="8"
         fill="none"
         fill-rule="evenodd"
         transform="matrix(-1,0,0,1,340.339,647.5)"
         id="path332" />
      <path
         d="M 0,0 6.83911,6.72795"
         stroke="#4472c4"
         stroke-width="3.33333"
         stroke-miterlimit="8"
         fill="none"
         fill-rule="evenodd"
         transform="matrix(0,1,1,0,333.5,647.5)"
         id="path334" />
      <path
         d="M 0,0 6.83911,6.72795"
         stroke="#4472c4"
         stroke-width="3.33333"
         stroke-miterlimit="8"
         fill="none"
         fill-rule="evenodd"
         transform="matrix(-1,0,0,1,154.339,674.5)"
         id="path336" />
      <path
         d="M 0,0 6.83911,6.72795"
         stroke="#4472c4"
         stroke-width="3.33333"
         stroke-miterlimit="8"
         fill="none"
         fill-rule="evenodd"
         transform="matrix(0,1,1,0,147.5,674.5)"
         id="path338" />
      <path
         d="M 0,0 6.83911,6.72795"
         stroke="#4472c4"
         stroke-width="3.33333"
         stroke-miterlimit="8"
         fill="none"
         fill-rule="evenodd"
         transform="matrix(-1,0,0,1,275.339,678.5)"
         id="path340" />
      <path
         d="M 0,0 6.83911,6.72795"
         stroke="#4472c4"
         stroke-width="3.33333"
         stroke-miterlimit="8"
         fill="none"
         fill-rule="evenodd"
         transform="matrix(0,1,1,0,268.5,677.5)"
         id="path342" />
      <path
         d="M 0,0 6.83911,6.72795"
         stroke="#4472c4"
         stroke-width="3.33333"
         stroke-miterlimit="8"
         fill="none"
         fill-rule="evenodd"
         transform="matrix(-1,0,0,1,267.339,450.5)"
         id="path344" />
      <path
         d="M 0,0 6.83911,6.72795"
         stroke="#4472c4"
         stroke-width="3.33333"
         stroke-miterlimit="8"
         fill="none"
         fill-rule="evenodd"
         transform="matrix(0,1,1,0,260.5,450.5)"
         id="path346" />
      <path
         d="m 430,167.75 h 62.401 V 157 L 527,178.5 492.401,200 V 189.25 H 430 Z"
         fill="#4472c4"
         fill-rule="evenodd"
         id="path348" />
      <path
         d="M 0,10.75 H 63.4006 V 0 L 98,21.5 63.4006,43 V 32.25 H 0 Z"
         fill="#4472c4"
         fill-rule="evenodd"
         transform="matrix(-1,0,0,1,527,544)"
         id="path350" />
      <path
         d="m 894,167.75 h 63.401 V 157 L 992,178.5 957.401,200 V 189.25 H 894 Z"
         fill="#4472c4"
         fill-rule="evenodd"
         id="path352" />
      <path
         d="M 0,10.75 H 62.4006 V 0 L 97,21.5 62.4006,43 V 32.25 H 0 Z"
         fill="#4472c4"
         fill-rule="evenodd"
         transform="matrix(-1,0,0,1,991,544)"
         id="path354" />
      <path
         d="M 0,10.75 H 63.4006 V 0 L 98,21.5 63.4006,43 V 32.25 H 0 Z"
         fill="#4472c4"
         fill-rule="evenodd"
         transform="matrix(0,1,1,0,1149,325)"
         id="path356" />
      <text
         font-family="Calibri, Calibri_MSFontService, sans-serif"
         font-weight="400"
         font-size="30px"
         transform="translate(189.865,778)"
         id="text358">The</text>
      <text
         font-family="Calibri, Calibri_MSFontService, sans-serif"
         font-weight="400"
         font-size="30px"
         transform="translate(242.156,778)"
         id="text360">crosses</text>
      <text
         font-family="Calibri, Calibri_MSFontService, sans-serif"
         font-weight="400"
         font-size="30px"
         transform="translate(337.506,778)"
         id="text362">are sequences in some &quot;sequence space&quot;. At</text>
      <text
         font-family="Calibri, Calibri_MSFontService, sans-serif"
         font-weight="400"
         font-size="30px"
         transform="translate(887.398,778)"
         id="text364">the</text>
      <text
         font-family="Calibri, Calibri_MSFontService, sans-serif"
         font-weight="400"
         font-size="30px"
         transform="translate(935.106,778)"
         id="text366">start,</text>
      <text
         font-family="Calibri, Calibri_MSFontService, sans-serif"
         font-weight="400"
         font-size="30px"
         transform="translate(1005.24,778)"
         id="text368">we</text>
      <text
         font-family="Calibri, Calibri_MSFontService, sans-serif"
         font-weight="400"
         font-size="30px"
         transform="translate(1048.31,778)"
         id="text370">have</text>
      <text
         font-family="Calibri, Calibri_MSFontService, sans-serif"
         font-weight="400"
         font-size="30px"
         transform="translate(1113.14,778)"
         id="text372">11</text>
      <text
         font-family="Calibri, Calibri_MSFontService, sans-serif"
         font-weight="400"
         font-size="30px"
         transform="translate(1150.43,778)"
         id="text374">sequences. We</text>
      <text
         font-family="Calibri, Calibri_MSFontService, sans-serif"
         font-weight="400"
         font-size="30px"
         transform="translate(189.865,814)"
         id="text376">find the pair of sequences which are closest to another and remove one of the pair. Giving us</text>
      <text
         font-family="Calibri, Calibri_MSFontService, sans-serif"
         font-weight="400"
         font-size="30px"
         transform="translate(189.865,850)"
         id="text378">the next picture. Again , we find the two sequences which are closest to another, remove one</text>
      <text
         font-family="Calibri, Calibri_MSFontService, sans-serif"
         font-weight="400"
         font-size="30px"
         transform="translate(189.865,886)"
         id="text380">of them and keep going. At the end, we have six sequences which are six good representatives</text>
      <text
         font-family="Calibri, Calibri_MSFontService, sans-serif"
         font-weight="400"
         font-size="30px"
         transform="translate(189.865,922)"
         id="text382">of our original</text>
      <text
         font-family="Calibri, Calibri_MSFontService, sans-serif"
         font-weight="400"
         font-size="30px"
         transform="translate(368.823,922)"
         id="text384">set,</text>
      <text
         font-family="Calibri, Calibri_MSFontService, sans-serif"
         font-weight="400"
         font-size="30px"
         transform="translate(419.706,922)"
         id="text386">but the set is much smaller and suitable for a calculation like a careful</text>
      <text
         font-family="Calibri, Calibri_MSFontService, sans-serif"
         font-weight="400"
         font-size="30px"
         transform="translate(189.865,958)"
         id="text388">phylogeny.</text>
    </g>
  </g>
  <metadata
     id="metadata632">
    <rdf:RDF>
      <cc:Work
         rdf:about="">
        <dc:title>How the reduce program works</dc:title>
      </cc:Work>
    </rdf:RDF>
  </metadata>
</svg>
